PathFileType	4	(X/Y/Z)	C:\Users\Basilio\Documents\Thesis Gigler\squatting_fais\c3dfiles\038\SJ_pre3\markers_experimental.trc
DataRate	CameraRate	NumFrames	NumMarkers	Units	OrigDataRate	OrigDataStartFrame	OrigNumFrames
200.000000	200.000000	4	61	mm	200.000000	514	2059
Frame#	Time	FHD			LBHD			RBHD			C7			T10			CLAV			LSHO			LUUPA			LMUPA			LDUPA			LLEP			LMEP			LRAD			LUL			LRFIN			RSHO			RUPA1			RMUPA			RDUPA			RLEP			RMEP			RRAD			RUL			RUFIN			LASI			RASI			USACR			LSACR			RSACR			LTHI1			LTHI2			LTHI3			LTHI4			LLFC			LMFC			LTIB1			LTIB2			LTIB3			LTIB4			LLMAL			LMMAL			LHEE			LMT1			LMT2			LMT5			RTHI			RTHI2			RTHI3			RTHI4			RLFC			RMFC			RTIB1			RTIB2			RTIB3			RTIB4			RLMAL			RMMAL			RHEE			RMT1			RMT2			RMT5			
		X1	Y1	Z1	X2	Y2	Z2	X3	Y3	Z3	X4	Y4	Z4	X5	Y5	Z5	X6	Y6	Z6	X7	Y7	Z7	X8	Y8	Z8	X9	Y9	Z9	X10	Y10	Z10	X11	Y11	Z11	X12	Y12	Z12	X13	Y13	Z13	X14	Y14	Z14	X15	Y15	Z15	X16	Y16	Z16	X17	Y17	Z17	X18	Y18	Z18	X19	Y19	Z19	X20	Y20	Z20	X21	Y21	Z21	X22	Y22	Z22	X23	Y23	Z23	X24	Y24	Z24	X25	Y25	Z25	X26	Y26	Z26	X27	Y27	Z27	X28	Y28	Z28	X29	Y29	Z29	X30	Y30	Z30	X31	Y31	Z31	X32	Y32	Z32	X33	Y33	Z33	X34	Y34	Z34	X35	Y35	Z35	X36	Y36	Z36	X37	Y37	Z37	X38	Y38	Z38	X39	Y39	Z39	X40	Y40	Z40	X41	Y41	Z41	X42	Y42	Z42	X43	Y43	Z43	X44	Y44	Z44	X45	Y45	Z45	X46	Y46	Z46	X47	Y47	Z47	X48	Y48	Z48	X49	Y49	Z49	X50	Y50	Z50	X51	Y51	Z51	X52	Y52	Z52	X53	Y53	Z53	X54	Y54	Z54	X55	Y55	Z55	X56	Y56	Z56	X57	Y57	Z57	X58	Y58	Z58	X59	Y59	Z59	X60	Y60	Z60	X61	Y61	Z61	

515	2.57	-200.936019897461	1706.89013671875	-900.8942871093752	-354.3389587402344	1706.9111328125	-984.3242187500002	-371.3775329589844	1701.444946289063	-839.676696777344	-457.9004516601564	1528.763916015625	-908.7271118164065	-468.6004943847657	1242.073608398438	-912.6760253906252	-321.4521484375001	1500.73779296875	-916.586364746094	-410.898895263672	1550.98046875	-1067.57861328125	-469.3702087402345	1398.834716796875	-1244.079711914063	-442.5078735351564	1424.914672851563	-1277.672973632813	-460.372528076172	1377.074340820313	-1309.524536132813	-448.9163208007814	1354.870849609375	-1363.780151367188	-413.5584411621095	1292.267944335938	-1339.415283203125	-285.0701599121094	1292.313720703125	-1608.253173828125	-349.8879699707032	1260.718505859375	-1621.38037109375	-269.1923828125001	1297.538696289063	-1691.850463867188	-397.9882202148439	1541.703735351563	-765.1517333984376	-437.3514099121095	1447.877319335938	-571.5947265625001	-396.2987365722657	1442.445434570313	-547.1566772460939	-434.827362060547	1415.407470703125	-509.2127380371095	-425.4858703613282	1382.048706054688	-444.0320739746095	-414.4593811035157	1309.037719726563	-473.7555236816407	-266.0717468261719	1288.73291015625	-228.0172424316407	-328.8550720214844	1282.489501953125	-195.4199523925782	-239.1024932861329	1306.779418945313	-144.7228546142578	-326.8753662109376	1043.709594726563	-1034.395141601563	-327.3885803222657	1051.555908203125	-785.1441650390627	-490.4656677246095	1104.942504882813	-912.5096435546877	-507.0220947265626	1076.593383789063	-939.6101684570315	-505.3123779296876	1077.199951171875	-883.462585449219	-378.1214904785157	729.0075683593751	-1108.673706054688	-349.2504272460938	648.8455810546876	-1105.63232421875	-303.6396179199219	651.1456298828126	-1083.644897460938	-379.5540161132813	599.3817749023439	-1090.141723632813	-375.2537841796876	538.0467529296876	-1087.379272460938	-359.9537658691407	516.2352294921876	-969.873962402344	-346.5565795898438	342.0326538085938	-1039.507568359375	-395.053436279297	308.8376159667969	-1107.483764648438	-359.7661437988282	299.5089721679688	-1080.681518554688	-373.0568542480469	217.5126953125001	-1060.27734375	-461.4353942871095	86.03370666503908	-1091.690673828125	-418.5991516113282	98.0450134277344	-1021.039489746094	-501.7772827148439	43.87202072143555	-1037.854858398438	-291.5433654785157	47.28194046020509	-1051.317626953125	-290.4158020019532	48.98093414306642	-1102.501953125	-334.2388000488282	29.40202713012696	-1146.791870117188	-380.8686523437501	785.717956542969	-717.0736694335939	-344.2712402343751	729.0317993164064	-709.4785766601564	-311.4014587402344	730.6574707031251	-715.8538818359376	-373.1450500488282	649.3140258789064	-725.4841918945314	-358.2979125976563	515.5177612304689	-730.2759399414064	-355.6423339843751	510.4247131347657	-849.6906738281252	-328.2278137207032	335.8006286621094	-747.7198486328126	-412.6052856445314	265.0614624023438	-711.6302490234376	-366.1725463867188	263.4587402343751	-718.5863647460939	-360.0986022949219	210.6730346679688	-745.9183959960939	-440.7925415039064	99.63746643066409	-715.9429931640626	-401.7351379394532	98.52427673339847	-791.1030883789065	-491.7732238769532	48.43870925903322	-787.3922119140627	-278.6018371582032	48.24394607543947	-731.8079223632814	-291.3063659667969	53.41836166381837	-686.9093627929689	-342.8710937500001	35.15672683715821	-651.4226074218751	
516	2.575	-199.9745483398438	1705.8017578125	-900.8149414062502	-353.4950256347657	1706.63671875	-984.2872314453127	-370.3859558105469	1701.135986328125	-839.5568847656252	-457.7256774902345	1528.868286132813	-908.7652587890627	-469.3985595703126	1242.228881835938	-912.7080078125002	-321.4519958496094	1500.3173828125	-916.4837036132815	-410.4491577148439	1550.899658203125	-1067.5546875	-469.3724975585939	1399.048461914063	-1244.14990234375	-442.3796691894532	1425.115234375	-1277.800170898438	-460.3566284179689	1377.331298828125	-1309.686767578125	-448.9932250976564	1355.174560546875	-1363.91064453125	-413.8695068359376	1292.354370117188	-1339.620239257813	-284.7619934082032	1292.280029296875	-1608.270263671875	-349.7583312988282	1261.11572265625	-1621.443603515625	-268.9034729003907	1297.796630859375	-1691.755737304688	-397.6988220214845	1541.510498046875	-765.1763305664064	-437.3094177246095	1447.784790039063	-571.6014404296876	-396.3086242675782	1442.30712890625	-547.1548461914064	-434.8813476562501	1415.342651367188	-509.2853088378907	-425.5858459472657	1381.9541015625	-444.033416748047	-414.8019104003907	1308.937133789063	-473.782196044922	-266.1241149902344	1288.291381835938	-228.2639160156251	-328.8807678222657	1282.03173828125	-195.5255432128907	-239.0709686279297	1306.035278320313	-145.0197448730469	-327.7555847167969	1043.568481445313	-1034.462158203125	-328.6762390136719	1051.301513671875	-785.0202636718752	-491.5604553222657	1104.839111328125	-912.6597900390627	-508.1268920898439	1076.342895507813	-939.8081665039065	-506.3648681640626	1077.113159179688	-883.5435791015627	-378.4228820800782	728.8300170898439	-1108.749267578125	-349.4154663085938	648.7222900390626	-1105.699951171875	-303.7555236816407	651.0756835937501	-1083.590576171875	-379.4844055175782	599.1599121093751	-1090.597900390625	-375.1920471191407	537.9141235351564	-1087.452392578125	-360.3320922851563	516.1378173828126	-970.0382080078127	-346.6596984863282	341.4808349609376	-1039.622924804688	-394.8093566894532	308.6722412109376	-1107.434936523438	-359.5369262695313	299.6683044433594	-1080.693603515625	-373.0973815917969	217.3710632324219	-1060.13232421875	-461.3604125976564	86.10280609130861	-1091.594482421875	-418.587860107422	97.99887847900393	-1020.895935058594	-501.7710571289064	43.88276290893555	-1037.80908203125	-291.7849121093751	47.21783065795899	-1051.392944335938	-290.2370605468751	48.89330673217775	-1102.6083984375	-334.2566528320313	29.4536247253418	-1146.75439453125	-382.8634948730469	785.3884887695315	-717.2546997070314	-345.6464538574219	729.1774902343751	-709.4490356445314	-312.7356872558594	730.5971069335939	-715.4797973632814	-374.5406188964844	648.8903198242189	-725.7260131835939	-359.9882202148438	515.2746582031251	-730.3172607421876	-356.5450134277344	510.2167053222657	-849.9177246093752	-329.1721801757813	335.5697631835938	-747.6304321289064	-413.5296020507814	264.5395812988282	-711.8225097656251	-367.0601501464844	263.0599975585938	-718.7710571289064	-360.8182373046876	210.3557739257813	-745.8943481445314	-441.1356201171876	99.00446319580081	-716.2837524414064	-401.9499511718751	98.0771179199219	-791.418151855469	-491.7486877441407	47.50425720214844	-787.7875976562502	-278.6564636230469	48.29224395751955	-731.9454345703126	-291.4911804199219	53.4946632385254	-687.0131835937501	-342.9548339843751	35.17010116577149	-651.5187988281251	
517	2.58	-198.9933013916016	1704.526977539063	-900.519226074219	-352.6247558593751	1706.361572265625	-984.1900024414065	-369.2267150878907	1700.738403320313	-839.4551391601565	-457.5268554687501	1528.979858398438	-908.7581787109377	-470.3931274414064	1242.220825195313	-912.7753906250002	-321.3132019042969	1499.90380859375	-916.4918212890627	-410.0351562500001	1550.764892578125	-1067.527587890625	-469.4518127441407	1399.365966796875	-1244.279418945313	-442.4039916992189	1425.157348632813	-1277.862670898438	-460.360565185547	1377.64013671875	-1309.807250976563	-448.9970703125001	1355.431274414063	-1364.064575195313	-414.1262512207032	1292.4833984375	-1339.784301757813	-284.5131225585938	1292.368286132813	-1608.216064453125	-349.4916381835938	1261.294677734375	-1621.440673828125	-268.5015869140626	1297.901733398438	-1691.6767578125	-397.471649169922	1541.34814453125	-765.1643066406251	-437.2994079589845	1447.751098632813	-571.6342773437501	-396.3035583496095	1442.139770507813	-547.2250366210939	-434.8846435546876	1415.239135742188	-509.3174743652345	-425.6590881347657	1381.865112304688	-444.0515747070314	-415.1683044433595	1308.760009765625	-473.7720642089845	-266.1455993652344	1287.5390625	-228.5719451904297	-328.9185485839844	1281.562744140625	-195.7004394531251	-238.9238586425782	1305.459716796875	-145.3169097900391	-328.6032409667969	1043.400756835938	-1034.452270507813	-329.7801513671876	1051.091064453125	-785.227478027344	-492.7640075683595	1104.056518554688	-912.632507324219	-509.1652832031251	1076.341552734375	-939.927429199219	-507.5081787109376	1076.94970703125	-883.5728149414065	-378.7990417480469	728.6517333984376	-1108.820434570313	-349.5092468261719	648.6083984375001	-1105.7919921875	-304.0186462402344	651.1515502929689	-1083.648559570313	-379.4586486816407	598.9914550781251	-1090.719604492188	-375.3226928710938	537.5660400390626	-1087.533203125	-360.6134338378907	516.0195922851564	-970.1966552734377	-346.2907104492188	341.8764953613282	-1039.31298828125	-394.5385131835939	308.5433349609376	-1107.386596679688	-359.3455810546876	299.5797119140626	-1080.651000976563	-373.0827026367188	217.1547393798829	-1059.976440429688	-461.2472534179689	86.04680633544923	-1091.423583984375	-418.4969482421876	97.86768341064456	-1020.786682128906	-501.841766357422	43.86911392211915	-1037.769409179688	-291.5999145507813	47.1118507385254	-1051.375244140625	-290.3562927246094	48.97322845458986	-1102.517944335938	-334.2743225097657	29.51560783386231	-1146.70703125	-384.3493652343751	784.9627685546877	-717.3854980468751	-347.1818237304688	728.8471069335939	-709.4409790039064	-314.8107604980469	730.1014404296876	-715.4876098632814	-376.2039489746094	648.6665039062501	-725.9235839843751	-361.4466247558594	514.7673950195314	-730.5936889648439	-357.4614257812501	509.9309997558595	-850.0833129882815	-330.2231140136719	335.3439941406251	-747.5270385742189	-414.5880432128907	264.1651611328126	-712.1193237304689	-368.0109863281251	262.6962280273438	-718.8559570312501	-361.5050659179688	209.9504547119141	-746.0041503906251	-441.4467773437501	98.41839599609378	-716.6744995117189	-402.1349182128907	97.61977386474612	-791.6676025390627	-491.5751953125001	46.96123504638673	-787.8663330078127	-278.7890014648438	48.35285949707033	-732.1152343750001	-291.5679016113282	53.55190658569337	-687.1508178710939	-343.0072021484376	35.17179489135743	-651.6118164062501	
518	2.585	-198.1541748046876	1703.804931640625	-900.623962402344	-351.6290283203126	1705.974731445313	-984.1028442382815	-368.4826049804688	1700.352783203125	-839.324401855469	-457.2991027832032	1529.041625976563	-908.716247558594	-471.0753479003907	1242.274658203125	-912.8106079101565	-321.1892700195313	1499.427490234375	-916.5020751953127	-409.6122436523439	1550.643432617188	-1067.499633789063	-469.5231018066407	1399.602416992188	-1244.403198242188	-442.3557128906251	1425.340087890625	-1277.971557617188	-460.4533996582032	1377.971313476563	-1309.988525390625	-449.1014099121095	1355.744140625	-1364.169189453125	-414.4057617187501	1292.570678710938	-1339.925170898438	-284.2308349609376	1292.475341796875	-1608.157348632813	-349.2539062500001	1261.710815429688	-1621.519409179688	-268.0305175781251	1298.083984375	-1691.53759765625	-397.2043457031251	1541.109130859375	-765.1324462890626	-437.4494018554689	1447.808349609375	-571.3911132812501	-396.1939392089845	1441.906494140625	-547.2354736328126	-434.8791809082032	1415.159790039063	-509.3096618652345	-425.708709716797	1381.724609375	-444.0364685058595	-415.5002746582032	1308.597412109375	-473.7695617675782	-266.1013488769532	1286.933837890625	-228.8101654052735	-328.9529418945313	1281.09814453125	-195.8112030029297	-238.6790924072266	1304.730346679688	-145.6618957519532	-329.9541931152344	1043.084594726563	-1034.168579101563	-331.2356567382813	1050.855346679688	-785.1465454101565	-493.8119506835939	1104.413208007813	-912.9942016601565	-510.3265991210939	1076.211059570313	-940.0683593750002	-508.4866333007814	1076.63818359375	-883.6899414062502	-379.2327575683594	728.4523315429689	-1108.874389648438	-349.7121582031251	648.4487304687501	-1105.842651367188	-304.4245910644532	651.4150390625001	-1083.736572265625	-379.4843139648438	598.7612304687501	-1090.824096679688	-375.1710510253907	537.4747314453126	-1087.611450195313	-361.1623840332032	515.9724731445314	-970.3170166015627	-346.4218750000001	341.3461303710938	-1039.464233398438	-394.2076721191407	308.3864135742188	-1107.29638671875	-358.9462890625001	299.9258117675782	-1080.301147460938	-373.0006408691407	217.469711303711	-1059.717041015625	-461.0867309570314	86.09034729003908	-1091.253173828125	-418.8099975585939	97.46734619140628	-1020.848022460938	-501.7896728515626	43.81462860107423	-1037.760131835938	-291.6223449707032	47.14715957641602	-1051.336181640625	-290.3809509277344	48.90729904174806	-1102.421875	-334.2401428222657	29.55640411376954	-1146.695556640625	-386.2215270996095	784.5941162109377	-717.5075073242189	-349.0514526367188	728.5010375976564	-709.2715454101564	-316.2337646484376	729.8798217773439	-715.5427246093751	-377.5653076171876	648.3049316406251	-726.1303710937501	-362.8840332031251	514.6263427734376	-730.7025756835939	-358.5453796386719	509.4324951171876	-850.2606201171877	-331.3690795898438	335.0220947265626	-747.6885375976564	-415.6898803710939	263.3331604003907	-712.5983276367189	-368.9831848144532	262.2212219238282	-718.9610595703126	-362.0130004882813	209.5661315917969	-746.2421875000001	-441.7734375000001	97.729606628418	-717.0012817382814	-401.8775329589845	96.77912139892581	-791.781188964844	-491.5565795898439	45.83077239990235	-788.2412719726565	-278.8982238769532	48.46667098999025	-732.2636108398439	-291.6394958496094	53.58063888549806	-687.2894287109376	-343.1672058105469	35.26903152465821	-651.6758422851564	
